<svg width="176" height="58" viewBox="0 0 176 58" fill="none" xmlns="http://www.w3.org/2000/svg">
<g filter="url(#filter0_d_265_117)">
<rect y="2" width="64" height="48" rx="5" fill="white"/>
<g clip-path="url(#clip0_265_117)">
<path d="M37.2471 37.5665C40.8473 36.2548 42.1905 33.5097 43.2941 30.5932C45.1267 25.7971 46.8993 20.9875 48.7169 16.1688C49.6357 13.7617 52.1774 12.5492 54.6741 13.2704C55.2917 13.4342 55.8652 13.7117 56.3582 14.0854C56.8513 14.4591 57.2533 14.9209 57.5389 15.4417C57.8246 15.9625 57.9877 16.5311 58.018 17.1116C58.0483 17.6921 57.9452 18.272 57.715 18.8148C56.0073 23.4531 54.3445 28.1005 52.4819 32.6893C51.9667 33.9256 51.1787 35.0546 50.1656 36.0078C49.1526 36.961 47.9356 37.7185 46.5886 38.2344C45.2415 38.7503 43.7924 39.0139 42.3291 39.0091C40.8658 39.0043 39.4189 38.7313 38.076 38.2066C37.7478 38.055 37.4638 37.8357 37.2471 37.5665Z" fill="#5956E9"/>
<path d="M26.7115 17.3678C26.6947 16.368 27.0636 15.3939 27.7551 14.6127C28.4465 13.8314 29.4175 13.2915 30.5015 13.0856C32.8883 12.6889 35.0654 13.6716 35.8794 15.7406C37.5172 19.8786 39.0402 24.0617 40.6031 28.2267C40.8456 29.0557 41.1543 29.8677 41.5269 30.6563C41.7327 31.0209 41.8248 31.4291 41.7931 31.8373C41.7614 32.2455 41.6073 32.6382 41.3471 32.9732C40.3485 34.5599 39.2399 36.0114 37.2925 36.7642C36.9289 36.9411 36.511 37.0051 36.1032 36.9465C35.6953 36.8878 35.3202 36.7097 35.0355 36.4396C33.2229 34.9476 32.2791 33.0409 31.5401 30.9944C30.0421 26.9375 28.5041 22.8807 26.9611 18.8238C26.799 18.3522 26.7149 17.8616 26.7115 17.3678ZM5.00015 17.3994C4.99043 16.4028 5.3593 15.4333 6.04531 14.6525C6.73131 13.8716 7.69301 13.3266 8.77017 13.1081C9.89484 12.8965 11.0664 13.0634 12.0643 13.5773C13.0621 14.0912 13.8175 14.9167 14.188 15.8984C16.1155 20.9739 18.018 26.0721 19.9404 31.1386C20.0974 31.4041 20.1367 31.7135 20.0503 32.0041C19.1065 34.0461 17.8781 35.8671 15.4713 36.7822C15.1228 36.9453 14.725 37.0019 14.3378 36.9433C13.9505 36.8848 13.5948 36.7144 13.3242 36.4576C11.5615 35.0332 10.6028 33.2076 9.87371 31.2378C8.33242 27.0637 6.78446 22.8912 5.22985 18.7201C5.06184 18.2969 4.9839 17.8488 5.00015 17.3994Z" fill="#5956E9"/>
<path d="M20.4098 38.9594C18.9784 38.9951 17.56 38.7052 16.2852 38.1165C15.7859 37.8911 15.4763 37.6206 16.2103 37.2961C18.8269 36.1466 20.1152 34.019 21.044 31.7156C22.542 27.9337 23.9451 24.1068 25.3882 20.3023C25.4881 20.0454 25.4182 19.6442 25.8876 19.6532C26.3569 19.6622 26.5217 19.9327 26.6515 20.2798C28.063 24.0542 29.4845 27.8271 30.9159 31.5984C31.0331 32.0365 30.9579 32.4985 30.7062 32.8876C29.8567 34.7114 28.4223 36.2641 26.5875 37.3461C24.7526 38.4281 22.6012 38.99 20.4098 38.9594Z" fill="#5956E9"/>
</g>
<path d="M81.5547 24.9102V28.7188C81.5547 30.1172 81.4844 31.1445 81.3438 31.8008C81.2031 32.4492 80.9023 33.0586 80.4414 33.6289C79.9805 34.1914 79.3867 34.6094 78.6602 34.8828C77.9414 35.1484 77.1133 35.2812 76.1758 35.2812C75.1289 35.2812 74.2422 35.168 73.5156 34.9414C72.7891 34.707 72.2227 34.3594 71.8164 33.8984C71.418 33.4297 71.1328 32.8672 70.9609 32.2109C70.7891 31.5469 70.7031 30.5547 70.7031 29.2344V25.25C70.7031 23.8047 70.8594 22.6758 71.1719 21.8633C71.4844 21.0508 72.0469 20.3984 72.8594 19.9062C73.6719 19.4141 74.7109 19.168 75.9766 19.168C77.0391 19.168 77.9492 19.3281 78.707 19.6484C79.4727 19.9609 80.0625 20.3711 80.4766 20.8789C80.8906 21.3867 81.1719 21.9102 81.3203 22.4492C81.4766 22.9883 81.5547 23.8086 81.5547 24.9102ZM76.8203 23.7383C76.8203 22.9414 76.7773 22.4414 76.6914 22.2383C76.6055 22.0273 76.4219 21.9219 76.1406 21.9219C75.8594 21.9219 75.6719 22.0273 75.5781 22.2383C75.4844 22.4414 75.4375 22.9414 75.4375 23.7383V30.7578C75.4375 31.4922 75.4844 31.9727 75.5781 32.1992C75.6719 32.418 75.8555 32.5273 76.1289 32.5273C76.4102 32.5273 76.5938 32.4258 76.6797 32.2227C76.7734 32.0195 76.8203 31.582 76.8203 30.9102V23.7383ZM87.8594 19.4492L87.6719 21.4883C88.3594 20.0273 89.3555 19.2539 90.6602 19.168V24.6406C89.793 24.6406 89.1562 24.7578 88.75 24.9922C88.3438 25.2266 88.0938 25.5547 88 25.9766C87.9062 26.3906 87.8594 27.3516 87.8594 28.8594V35H83.125V19.4492H87.8594ZM101.922 19.4492L100 25.6484L102.496 35H97.9375L96.4609 28.2266V35H91.7266V16.0273H96.4609V23.9961L97.9375 19.4492H101.922ZM103.352 16.0273H108.273C109.828 16.0273 111.004 16.1484 111.801 16.3906C112.605 16.6328 113.254 17.125 113.746 17.8672C114.238 18.6016 114.484 19.7891 114.484 21.4297C114.484 22.5391 114.309 23.3125 113.957 23.75C113.613 24.1875 112.93 24.5234 111.906 24.7578C113.047 25.0156 113.82 25.4453 114.227 26.0469C114.633 26.6406 114.836 27.5547 114.836 28.7891V30.5469C114.836 31.8281 114.688 32.7773 114.391 33.3945C114.102 34.0117 113.637 34.4336 112.996 34.6602C112.355 34.8867 111.043 35 109.059 35H103.352V16.0273ZM108.285 19.2734V23.4922C108.496 23.4844 108.66 23.4805 108.777 23.4805C109.262 23.4805 109.57 23.3633 109.703 23.1289C109.836 22.8867 109.902 22.2031 109.902 21.0781C109.902 20.4844 109.848 20.0703 109.738 19.8359C109.629 19.5938 109.484 19.4414 109.305 19.3789C109.133 19.3164 108.793 19.2812 108.285 19.2734ZM108.285 26.4453V31.7539C108.98 31.7305 109.422 31.6211 109.609 31.4258C109.805 31.2305 109.902 30.75 109.902 29.9844V28.2148C109.902 27.4023 109.816 26.9102 109.645 26.7383C109.473 26.5664 109.02 26.4688 108.285 26.4453ZM127.199 27.5H121.07V30.8633C121.07 31.5664 121.121 32.0195 121.223 32.2227C121.324 32.4258 121.52 32.5273 121.809 32.5273C122.168 32.5273 122.406 32.3945 122.523 32.1289C122.648 31.8555 122.711 31.332 122.711 30.5586V28.5078H127.199V29.6562C127.199 30.6172 127.137 31.3555 127.012 31.8711C126.895 32.3867 126.613 32.9375 126.168 33.5234C125.723 34.1094 125.156 34.5508 124.469 34.8477C123.789 35.1367 122.934 35.2812 121.902 35.2812C120.902 35.2812 120.02 35.1367 119.254 34.8477C118.488 34.5586 117.891 34.1641 117.461 33.6641C117.039 33.1562 116.746 32.6016 116.582 32C116.418 31.3906 116.336 30.5078 116.336 29.3516V24.8164C116.336 23.457 116.52 22.3867 116.887 21.6055C117.254 20.8164 117.855 20.2148 118.691 19.8008C119.527 19.3789 120.488 19.168 121.574 19.168C122.902 19.168 123.996 19.4219 124.855 19.9297C125.723 20.4297 126.328 21.0977 126.672 21.9336C127.023 22.7617 127.199 23.9297 127.199 25.4375V27.5ZM122.453 24.9688V23.832C122.453 23.0273 122.41 22.5078 122.324 22.2734C122.238 22.0391 122.062 21.9219 121.797 21.9219C121.469 21.9219 121.266 22.0234 121.188 22.2266C121.109 22.4219 121.07 22.957 121.07 23.832V24.9688H122.453ZM133.574 19.4492L133.492 20.8789C133.836 20.3086 134.254 19.8828 134.746 19.6016C135.246 19.3125 135.82 19.168 136.469 19.168C137.281 19.168 137.945 19.3594 138.461 19.7422C138.977 20.125 139.309 20.6094 139.457 21.1953C139.605 21.7734 139.68 22.7422 139.68 24.1016V35H134.945V24.2305C134.945 23.1602 134.91 22.5078 134.84 22.2734C134.77 22.0391 134.574 21.9219 134.254 21.9219C133.918 21.9219 133.707 22.0586 133.621 22.332C133.535 22.5977 133.492 23.3164 133.492 24.4883V35H128.758V19.4492H133.574ZM151.785 25.3203H147.32V23.5273C147.32 22.9023 147.27 22.4805 147.168 22.2617C147.066 22.0352 146.879 21.9219 146.605 21.9219C146.332 21.9219 146.148 22.0195 146.055 22.2148C145.961 22.4102 145.914 22.8477 145.914 23.5273V30.8633C145.914 31.418 145.984 31.8359 146.125 32.1172C146.266 32.3906 146.473 32.5273 146.746 32.5273C147.066 32.5273 147.281 32.3828 147.391 32.0938C147.508 31.8047 147.566 31.2578 147.566 30.4531V28.6016H151.785C151.777 29.8438 151.73 30.7773 151.645 31.4023C151.566 32.0195 151.305 32.6562 150.859 33.3125C150.422 33.9609 149.848 34.4531 149.137 34.7891C148.426 35.1172 147.547 35.2812 146.5 35.2812C145.164 35.2812 144.105 35.0547 143.324 34.6016C142.543 34.1406 141.988 33.5 141.66 32.6797C141.34 31.8516 141.18 30.6797 141.18 29.1641V24.7461C141.18 23.4258 141.312 22.4297 141.578 21.7578C141.844 21.0859 142.41 20.4883 143.277 19.9648C144.145 19.4336 145.199 19.168 146.441 19.168C147.676 19.168 148.73 19.4297 149.605 19.9531C150.48 20.4766 151.062 21.1367 151.352 21.9336C151.641 22.7305 151.785 23.8594 151.785 25.3203ZM157.938 16.0273V20.293C158.344 19.918 158.781 19.6367 159.25 19.4492C159.727 19.2617 160.234 19.168 160.773 19.168C161.602 19.168 162.305 19.3789 162.883 19.8008C163.469 20.2227 163.824 20.7109 163.949 21.2656C164.082 21.8125 164.148 22.8164 164.148 24.2773V35H159.414V24.0547C159.414 23.1484 159.367 22.5664 159.273 22.3086C159.188 22.0508 158.988 21.9219 158.676 21.9219C158.387 21.9219 158.191 22.0547 158.09 22.3203C157.988 22.5859 157.938 23.1133 157.938 23.9023V35H153.203V16.0273H157.938Z" fill="black"/>
</g>
<defs>
<filter id="filter0_d_265_117" x="0" y="0" width="184" height="60" filterUnits="userSpaceOnUse" color-interpolation-filters="sRGB">
<feFlood flood-opacity="0" result="BackgroundImageFix"/>
<feColorMatrix in="SourceAlpha" type="matrix" values="0 0 0 0 0 0 0 0 0 0 0 0 0 0 0 0 0 0 127 0" result="hardAlpha"/>
<feOffset dx="4" dy="4"/>
<feGaussianBlur stdDeviation="2"/>
<feComposite in2="hardAlpha" operator="out"/>
<feColorMatrix type="matrix" values="0 0 0 0 0 0 0 0 0 0 0 0 0 0 0 0 0 0 0.25 0"/>
<feBlend mode="normal" in2="BackgroundImageFix" result="effect1_dropShadow_265_117"/>
<feBlend mode="normal" in="SourceGraphic" in2="effect1_dropShadow_265_117" result="shape"/>
</filter>
<clipPath id="clip0_265_117">
<rect width="53" height="26" fill="white" transform="translate(5 13)"/>
</clipPath>
</defs>
</svg>
