<svg width="217" height="36" viewBox="0 0 217 36" fill="none" xmlns="http://www.w3.org/2000/svg">
<g clip-path="url(#clip0_1120_15975)">
<path d="M38.357 30.956C37.9591 30.9273 37.5597 30.9273 37.1618 30.956C36.8094 31.0262 36.4434 30.9678 36.1311 30.7915C35.8189 30.6153 35.5814 30.3331 35.4626 29.9971C35.1771 29.3917 34.8293 28.8128 34.4992 28.2294C34.2183 27.7301 34.3967 27.5577 34.9452 27.5621C35.9977 27.5621 37.0547 27.5356 38.1073 27.5621C38.3137 27.5863 38.5226 27.5461 38.7048 27.4471C38.8871 27.3481 39.0337 27.1952 39.1241 27.0097C40.0874 25.2951 41.073 23.5893 42.0364 21.8747C43.1603 19.8817 44.2663 17.8975 45.3946 15.8823C46.523 13.8672 47.6647 11.8521 48.8153 9.84135C49.0339 9.4613 49.0517 9.23151 48.521 9.23151C47.5175 9.23151 46.523 9.03706 45.515 9.23151C45.3497 9.23425 45.188 9.28077 45.0469 9.36624C44.9057 9.45171 44.7902 9.57302 44.7123 9.71761C42.3664 13.7656 40.0131 17.8076 37.6524 21.8438C37.2777 22.4845 36.8719 23.1076 36.5419 23.7661C36.4832 23.9172 36.3788 24.0466 36.2432 24.1368C36.1075 24.2269 35.947 24.2734 35.7837 24.2699H32.8313C32.3853 24.2699 32.1623 23.9915 31.975 23.66C30.9269 21.8128 29.8922 19.9524 28.8308 18.1096C28.5587 17.6367 28.3848 16.8722 27.8585 16.8545C27.3323 16.8369 27.2163 17.6146 26.9666 18.061C24.6029 22.1325 22.257 26.2158 19.9289 30.3108C19.8238 30.5386 19.6484 30.7272 19.4279 30.8496C19.2074 30.9719 18.9534 31.0216 18.7025 30.9914C17.65 30.9428 16.593 30.9472 15.5405 30.9914C15.3032 31.0084 15.0664 30.9521 14.8627 30.8302C14.659 30.7083 14.4985 30.5269 14.4032 30.3108C13.9572 29.5728 13.5603 28.8216 13.1277 28.1013C12.8735 27.6594 13.0028 27.54 13.48 27.5356C14.6262 27.5356 15.7679 27.4517 16.9141 27.4561C17.1196 27.4714 17.3248 27.423 17.5014 27.3177C17.6779 27.2124 17.8171 27.0554 17.8997 26.8683C19.9215 23.3006 21.9552 19.7432 24.0008 16.1961C24.6118 15.1311 25.2495 14.0837 25.8605 13.0187C25.9081 12.9136 25.9859 12.8247 26.0844 12.7634C26.1828 12.702 26.2973 12.6709 26.4136 12.674H29.0895C29.5354 12.674 29.6782 12.9436 29.8655 13.2618C31.1588 15.4831 32.4641 17.6927 33.7812 19.8905C34.2673 20.6992 34.2896 20.6859 34.7579 19.8905L40.1811 10.7031C41.0062 9.31105 41.8535 7.92786 42.6608 6.52699C42.7494 6.35287 42.8895 6.20967 43.0625 6.1165C43.2354 6.02333 43.4328 5.98462 43.6285 6.00553H54.2296C55.1215 6.00553 55.1661 6.09391 54.7335 6.83191C53.0388 9.73087 51.3455 12.6313 49.6538 15.5332C47.3971 19.4265 45.1583 23.3153 42.906 27.2174C42.2817 28.3001 41.6216 29.3651 41.0106 30.4567C40.9251 30.6333 40.7855 30.7788 40.6118 30.8724C40.438 30.966 40.239 31.003 40.0428 30.9781C39.4764 30.9384 38.9189 30.956 38.357 30.956Z" fill="#7FFF00"/>
<path d="M6.06482 6.02414H11.3914C11.5987 5.99522 11.8095 6.03647 11.9919 6.14163C12.1742 6.24678 12.3181 6.41008 12.4017 6.60672C13.0106 7.79499 13.66 8.97864 14.3185 10.153C14.4235 10.2964 14.4803 10.4708 14.4803 10.6501C14.4803 10.8294 14.4235 11.0038 14.3185 11.1471C13.8675 11.8453 13.4165 12.5712 13.0151 13.3064C12.7309 13.8196 12.564 13.7132 12.316 13.274C11.6936 12.1597 11.0306 11.0731 10.4082 9.96347C10.3258 9.76485 10.184 9.59822 10.0032 9.48767C9.8224 9.37713 9.61198 9.3284 9.40238 9.34853C8.36503 9.39477 7.31866 9.38552 6.28131 9.34853C5.68145 9.34853 5.5687 9.46412 5.88892 10.019C7.66144 13.1307 9.43846 16.247 11.211 19.3541C11.5087 19.8765 11.8244 20.3898 12.113 20.9215C12.4017 21.4532 12.564 21.4578 12.8798 20.9215C14.3185 18.3369 15.7843 15.7708 17.2411 13.1954C18.486 10.9945 19.7172 8.79832 20.944 6.59285C21.0243 6.40765 21.1583 6.25232 21.3278 6.14806C21.4973 6.0438 21.694 5.99569 21.8912 6.01027C25.6587 6.03185 29.4172 6.03185 33.1667 6.01027C33.3667 5.9789 33.571 6.0199 33.7447 6.12621C33.9183 6.23252 34.0505 6.39752 34.1184 6.59285C34.6641 7.79499 35.264 8.98326 35.8593 10.1623C35.951 10.3025 36 10.4674 36 10.6362C36 10.805 35.951 10.97 35.8593 11.1101C35.4083 11.8453 34.9573 12.5989 34.5694 13.3618C34.3439 13.7733 34.2041 13.8242 33.965 13.3618C33.3426 12.1967 32.6751 11.05 32.0482 9.8895C31.965 9.70077 31.8252 9.54424 31.6491 9.44276C31.4731 9.34127 31.2699 9.30016 31.0695 9.32541C28.6279 9.35316 26.1894 9.35316 23.7539 9.32541C23.5579 9.30382 23.3603 9.34573 23.1888 9.44525C23.0173 9.54478 22.8805 9.69691 22.7977 9.88025C20.1232 14.6657 17.4215 19.4373 14.747 24.2135C14.6488 24.47 14.47 24.6857 14.2388 24.8264C14.0076 24.9671 13.7373 25.0247 13.4706 24.9903C12.6911 24.9394 11.9093 24.9394 11.1298 24.9903C10.9097 25.0192 10.6865 24.9733 10.4942 24.8597C10.302 24.7462 10.1514 24.5711 10.0654 24.3615C7.60732 19.9228 5.10415 15.498 2.64608 11.0685L0.296255 6.87027C-0.154766 6.04264 -0.154766 6.04264 0.747277 6.04264L6.06482 6.02414Z" fill="#964B00"/>
<path d="M61.304 29C59.768 29 58.3387 28.6693 57.016 28.008C55.6933 27.3467 54.6267 26.408 53.816 25.192C53.0053 23.976 52.6 22.5573 52.6 20.936C52.6 19.8267 52.824 18.8027 53.272 17.864C53.7413 16.904 54.328 16.008 55.032 15.176C55.7573 14.344 56.4827 13.5653 57.208 12.84C57.592 12.456 58.0507 12.1787 58.584 12.008C59.1173 11.816 59.6613 11.72 60.216 11.72C61.6027 11.72 62.936 11.8693 64.216 12.168C65.496 12.4667 66.6373 12.9573 67.64 13.64C68.664 14.3013 69.4747 15.1867 70.072 16.296C70.6693 17.384 70.968 18.7173 70.968 20.296C70.968 21.5973 70.6907 22.7813 70.136 23.848C69.5813 24.9147 68.8347 25.832 67.896 26.6C66.9787 27.368 65.944 27.9653 64.792 28.392C63.6613 28.7973 62.4987 29 61.304 29ZM60.664 25.448C61.8373 25.448 62.9467 25.2453 63.992 24.84C65.0373 24.4133 65.8907 23.784 66.552 22.952C67.2347 22.0987 67.576 21.0533 67.576 19.816C67.576 18.728 67.256 17.8213 66.616 17.096C65.9973 16.3707 65.208 15.8373 64.248 15.496C63.288 15.1333 62.3067 14.952 61.304 14.952C60.792 14.952 60.376 15.0267 60.056 15.176C59.736 15.3253 59.448 15.528 59.192 15.784C58.936 16.04 58.6373 16.3387 58.296 16.68C57.6987 17.2987 57.1653 17.9813 56.696 18.728C56.2267 19.4533 55.992 20.2853 55.992 21.224C55.992 22.7173 56.44 23.7947 57.336 24.456C58.232 25.1173 59.3413 25.448 60.664 25.448ZM76.0155 29.32C75.6315 29.32 75.3435 29.192 75.1515 28.936C74.9595 28.68 74.8315 28.3813 74.7675 28.04C74.7035 27.6773 74.6395 27.3573 74.5755 27.08V24.712C74.5755 23.5173 74.6288 22.312 74.7355 21.096C74.8422 19.8587 74.8955 18.6533 74.8955 17.48C74.8955 16.9253 74.8422 16.392 74.7355 15.88C74.6288 15.368 74.5755 14.8453 74.5755 14.312V13.448C74.7462 13.128 74.9702 12.8933 75.2475 12.744C75.5462 12.5947 75.8555 12.52 76.1755 12.52C76.6448 12.52 76.9968 12.6587 77.2315 12.936C77.4662 13.192 77.6262 13.5013 77.7115 13.864C77.8182 14.2267 77.9142 14.5573 77.9995 14.856C78.0848 15.1333 78.2235 15.2933 78.4155 15.336C79.0342 14.9307 79.6208 14.536 80.1755 14.152C80.7515 13.768 81.3488 13.4587 81.9675 13.224C82.6075 12.968 83.3115 12.84 84.0795 12.84C84.4635 12.84 84.8688 12.9253 85.2955 13.096C85.7435 13.2667 86.1275 13.512 86.4475 13.832C86.7675 14.1307 86.9275 14.504 86.9275 14.952C86.9275 15.5067 86.7035 15.912 86.2555 16.168C85.8288 16.424 85.4235 16.552 85.0395 16.552C84.7835 16.552 84.5382 16.4987 84.3035 16.392C84.0688 16.2853 83.8235 16.232 83.5675 16.232C82.8208 16.232 82.1168 16.424 81.4555 16.808C80.8155 17.1707 80.2502 17.608 79.7595 18.12C79.2688 18.632 78.8742 19.112 78.5755 19.56C78.4902 19.752 78.4262 20.072 78.3835 20.52C78.3408 20.968 78.3088 21.48 78.2875 22.056C78.2662 22.6107 78.2448 23.1547 78.2235 23.688C78.2235 24.2213 78.2128 24.68 78.1915 25.064C78.1702 25.768 78.0955 26.4507 77.9675 27.112C77.8608 27.752 77.6582 28.2853 77.3595 28.712C77.0608 29.1173 76.6128 29.32 76.0155 29.32ZM89.1763 29.32C88.7069 29.32 88.3123 29.1493 87.9923 28.808C87.6936 28.4667 87.5443 28.0827 87.5443 27.656V27.048L88.6643 15.368V8.136C88.6643 7.688 88.6856 7.176 88.7283 6.6C88.7709 6.024 88.9203 5.52267 89.1763 5.096C89.4536 4.66933 89.9229 4.456 90.5843 4.456C91.1816 4.456 91.5976 4.65867 91.8323 5.064C92.0883 5.46933 92.2376 5.94933 92.2803 6.504C92.3443 7.05867 92.3763 7.54933 92.3763 7.976C92.3763 9.21333 92.3229 10.4827 92.2163 11.784C92.1309 13.064 92.0776 14.4613 92.0563 15.976H92.4403C92.4829 15.976 92.6749 15.9227 93.0163 15.816C93.3576 15.688 93.7629 15.5493 94.2323 15.4C94.7016 15.2293 95.1603 15.0587 95.6083 14.888C96.0776 14.696 96.4509 14.536 96.7283 14.408C97.1123 14.216 97.5389 14.0027 98.0083 13.768C98.4776 13.512 98.9576 13.288 99.4483 13.096C99.9389 12.904 100.398 12.808 100.824 12.808C101.315 12.808 101.699 12.9893 101.976 13.352C102.275 13.6933 102.424 14.1093 102.424 14.6C102.424 15.176 102.211 15.5813 101.784 15.816C101.358 16.0293 100.931 16.2213 100.504 16.392C100.291 16.4987 99.9069 16.6693 99.3523 16.904C98.8189 17.1387 98.2109 17.3947 97.5283 17.672C96.8456 17.928 96.1843 18.184 95.5443 18.44C94.9043 18.6747 94.3603 18.8773 93.9123 19.048V19.144L94.0723 19.304C94.2216 19.4533 94.3709 19.5813 94.5203 19.688C94.6909 19.7947 94.8509 19.9227 95.0003 20.072C95.3203 20.264 95.8003 20.5733 96.4403 21C97.0803 21.4267 97.7629 21.8853 98.4883 22.376C99.2349 22.8667 99.9176 23.3253 100.536 23.752C101.176 24.1573 101.635 24.4453 101.912 24.616C102.19 24.8293 102.488 25.0533 102.808 25.288C103.128 25.5013 103.406 25.7573 103.64 26.056C103.896 26.3333 104.024 26.664 104.024 27.048C104.024 27.56 103.875 27.9867 103.576 28.328C103.299 28.6693 102.958 28.84 102.552 28.84C102.04 28.84 101.528 28.6907 101.016 28.392C100.526 28.0933 100.046 27.7413 99.5763 27.336C99.1283 26.9307 98.7016 26.5893 98.2963 26.312C98.0829 26.1627 97.6776 25.896 97.0803 25.512C96.5043 25.128 95.8536 24.7013 95.1283 24.232C94.4243 23.7627 93.7523 23.3147 93.1123 22.888C92.4936 22.4613 92.0136 22.1307 91.6723 21.896H91.5443L91.4163 22.184L90.7763 27.848C90.6909 28.2747 90.4883 28.6267 90.1683 28.904C89.8696 29.1813 89.5389 29.32 89.1763 29.32Z" fill="#964B00"/>
<path d="M126.557 29.16C125.725 29.16 125.031 29.1067 124.477 29C123.943 28.8933 123.506 28.6373 123.165 28.232C122.845 27.8053 122.589 27.1547 122.397 26.28C121.778 26.1307 121.33 25.864 121.053 25.48C120.797 25.0747 120.669 24.552 120.669 23.912V23.272C120.818 22.1627 120.957 21.1387 121.085 20.2C121.213 19.24 121.277 18.216 121.277 17.128C121.277 16.2747 121.266 15.528 121.245 14.888C121.245 14.2267 121.202 13.448 121.117 12.552C121.138 12.4453 121.01 12.3493 120.733 12.264C120.455 12.1787 120.274 12.1253 120.189 12.104C119.911 11.9973 119.655 11.8267 119.421 11.592C119.186 11.336 119.069 10.9733 119.069 10.504C119.069 9.97067 119.314 9.49067 119.805 9.064C120.317 8.616 120.967 8.22133 121.757 7.88C122.567 7.53867 123.41 7.26133 124.285 7.048C125.159 6.81333 125.981 6.64267 126.749 6.536C127.517 6.408 128.125 6.344 128.573 6.344C129.639 6.344 130.642 6.55733 131.581 6.984C132.519 7.38933 133.287 7.99733 133.885 8.808C134.482 9.59733 134.781 10.5787 134.781 11.752V12.552C134.717 12.808 134.589 13.1067 134.397 13.448C134.226 13.7893 134.055 14.12 133.885 14.44C133.735 14.76 133.661 15.016 133.661 15.208C133.661 15.3147 133.789 15.4427 134.045 15.592C134.322 15.72 134.61 15.848 134.909 15.976C135.229 16.0827 135.442 16.1893 135.549 16.296C136.402 17.0853 137.031 17.8747 137.437 18.664C137.863 19.4533 138.077 20.4133 138.077 21.544V22.824C137.821 23.976 137.255 24.9573 136.381 25.768C135.527 26.5787 134.525 27.24 133.373 27.752C132.221 28.2427 131.037 28.6053 129.821 28.84C128.605 29.0533 127.517 29.16 126.557 29.16ZM124.317 25.416H126.205C127.229 25.416 128.157 25.3733 128.989 25.288C129.842 25.1813 130.642 24.9573 131.389 24.616C132.135 24.2533 132.882 23.688 133.629 22.92C133.927 22.6213 134.151 22.3227 134.301 22.024C134.45 21.7253 134.525 21.3627 134.525 20.936C134.525 20.232 134.237 19.6453 133.661 19.176C133.085 18.6853 132.434 18.44 131.709 18.44H126.685C126.109 18.44 125.821 18.1093 125.821 17.448C125.821 17.3627 125.821 17.2773 125.821 17.192C125.842 17.1067 125.853 17.032 125.853 16.968C125.853 16.392 126.034 15.9333 126.397 15.592C126.759 15.2293 127.207 14.9307 127.741 14.696C128.274 14.44 128.797 14.184 129.309 13.928C129.842 13.6507 130.29 13.3307 130.653 12.968C131.015 12.584 131.197 12.0827 131.197 11.464C131.197 11.0373 131.037 10.7173 130.717 10.504C130.418 10.2907 130.066 10.1413 129.661 10.056C129.255 9.97067 128.893 9.928 128.573 9.928C127.89 9.928 127.175 10.0133 126.429 10.184C125.682 10.3547 125.095 10.6853 124.669 11.176V12.392C124.669 13.416 124.69 14.44 124.733 15.464C124.797 16.488 124.829 17.512 124.829 18.536V19.944C124.829 20.1147 124.818 20.4027 124.797 20.808C124.775 21.192 124.743 21.576 124.701 21.96C124.679 22.344 124.669 22.6213 124.669 22.792C124.669 23.2187 124.594 23.6453 124.445 24.072C124.317 24.4773 124.231 24.8933 124.189 25.32L124.317 25.416ZM149.8 29.48C148.264 29.48 146.846 29.2453 145.544 28.776C144.264 28.2853 143.23 27.5173 142.44 26.472C141.651 25.4053 141.256 24.0293 141.256 22.344C141.256 21.064 141.459 19.816 141.864 18.6C142.291 17.384 142.899 16.2853 143.688 15.304C144.478 14.3013 145.427 13.512 146.536 12.936C147.646 12.3387 148.894 12.04 150.28 12.04C151.219 12.04 152.094 12.232 152.904 12.616C153.736 12.9787 154.398 13.5227 154.888 14.248C155.4 14.952 155.656 15.816 155.656 16.84C155.656 17.8213 155.454 18.76 155.048 19.656C154.643 20.552 154.088 21.352 153.384 22.056C152.68 22.76 151.88 23.3147 150.984 23.72C150.11 24.104 149.192 24.296 148.232 24.296C148.083 24.296 147.752 24.264 147.24 24.2C146.728 24.1147 146.323 24.0293 146.024 23.944C145.811 23.9013 145.64 23.816 145.512 23.688C145.47 23.6667 145.395 23.6347 145.288 23.592C145.182 23.528 145.107 23.496 145.064 23.496C145.214 24.1147 145.523 24.6373 145.992 25.064C146.483 25.4693 147.038 25.768 147.656 25.96C148.296 26.152 148.904 26.248 149.48 26.248C149.886 26.248 150.291 26.2267 150.696 26.184C151.123 26.12 151.571 26.088 152.04 26.088C152.51 26.088 152.915 26.216 153.256 26.472C153.598 26.728 153.768 27.144 153.768 27.72C153.768 28.1893 153.619 28.552 153.32 28.808C153.043 29.064 152.68 29.2347 152.232 29.32C151.806 29.4053 151.368 29.448 150.92 29.448C150.494 29.4693 150.12 29.48 149.8 29.48ZM148.232 20.584C148.872 20.584 149.502 20.4667 150.12 20.232C150.76 19.976 151.283 19.6027 151.688 19.112C152.115 18.6213 152.328 18.0133 152.328 17.288C152.328 16.6693 152.136 16.1787 151.752 15.816C151.39 15.4533 150.899 15.272 150.28 15.272C149.726 15.272 149.139 15.4213 148.52 15.72C147.902 16.0187 147.315 16.4027 146.76 16.872C146.227 17.3413 145.79 17.8533 145.448 18.408C145.107 18.9413 144.936 19.464 144.936 19.976V20.104C145.491 20.1893 146.046 20.296 146.6 20.424C147.155 20.5307 147.699 20.584 148.232 20.584ZM161.503 28.36C160.97 28.36 160.575 28.2107 160.319 27.912C160.063 27.592 159.903 27.208 159.839 26.76C159.775 26.2907 159.743 25.8427 159.743 25.416C159.743 24.4347 159.764 23.4533 159.807 22.472C159.871 21.4907 159.903 20.552 159.903 19.656C159.903 18.696 159.796 17.7787 159.583 16.904C159.37 16.0293 159.263 15.1547 159.263 14.28V13.032C159.455 12.584 159.658 12.2853 159.871 12.136C160.084 11.9653 160.372 11.88 160.735 11.88C161.396 11.88 161.876 12.0933 162.175 12.52C162.474 12.9253 162.666 13.416 162.751 13.992C162.858 14.5467 162.932 15.0587 162.975 15.528C162.996 15.7627 163.039 16.2213 163.103 16.904C163.188 17.5867 163.242 18.2267 163.263 18.824H163.391L163.519 18.696C163.924 18.0987 164.351 17.4587 164.799 16.776C165.247 16.0933 165.738 15.4533 166.271 14.856C166.826 14.2587 167.434 13.7787 168.095 13.416C168.756 13.032 169.503 12.84 170.335 12.84C171.402 12.84 172.308 13.1493 173.055 13.768C173.802 14.3653 174.431 15.1547 174.943 16.136C175.455 17.096 175.871 18.1413 176.191 19.272C176.511 20.4027 176.767 21.5013 176.959 22.568C177.151 23.6347 177.322 24.552 177.471 25.32V26.12C177.471 26.5893 177.343 27.0587 177.087 27.528C176.831 27.976 176.426 28.2 175.871 28.2C175.295 28.2 174.868 28.0507 174.591 27.752C174.335 27.4533 174.164 27.0693 174.079 26.6C174.036 26.408 173.983 26.0987 173.919 25.672C173.855 25.224 173.78 24.744 173.695 24.232C173.61 23.6987 173.535 23.208 173.471 22.76C173.407 22.2907 173.354 21.9493 173.311 21.736C173.247 21.3093 173.098 20.808 172.863 20.232C172.65 19.6347 172.447 19.1227 172.255 18.696C172.063 18.248 171.818 17.7787 171.519 17.288C171.22 16.7973 170.783 16.552 170.207 16.552C169.695 16.552 169.226 16.7333 168.799 17.096C168.394 17.4587 168.031 17.8853 167.711 18.376C167.412 18.8667 167.146 19.304 166.911 19.688C166.378 20.5413 165.898 21.3947 165.471 22.248C165.044 23.1013 164.586 24.0293 164.095 25.032C163.903 25.4373 163.722 25.9067 163.551 26.44C163.38 26.952 163.146 27.4 162.847 27.784C162.548 28.168 162.1 28.36 161.503 28.36ZM187.642 28.52C186.106 28.52 184.815 28.1467 183.77 27.4C182.746 26.632 181.967 25.64 181.434 24.424C180.922 23.1867 180.666 21.864 180.666 20.456C180.666 18.856 181.018 17.384 181.722 16.04C182.447 14.696 183.439 13.6187 184.698 12.808C185.978 11.976 187.428 11.56 189.05 11.56C189.54 11.56 190.084 11.6133 190.682 11.72C191.3 11.8053 191.898 11.976 192.474 12.232C193.05 12.4667 193.519 12.7867 193.882 13.192C194.266 13.5973 194.458 14.12 194.458 14.76C194.458 15.2293 194.287 15.592 193.946 15.848C193.604 16.104 193.188 16.232 192.698 16.232C192.186 16.232 191.727 16.104 191.322 15.848C190.916 15.5707 190.511 15.304 190.106 15.048C189.7 14.7707 189.242 14.632 188.73 14.632C188.026 14.632 187.386 14.8453 186.81 15.272C186.234 15.6987 185.743 16.2427 185.338 16.904C184.932 17.5653 184.612 18.2693 184.378 19.016C184.164 19.7413 184.058 20.424 184.058 21.064C184.058 22.152 184.271 22.9947 184.698 23.592C185.146 24.168 185.743 24.5733 186.49 24.808C187.258 25.0213 188.111 25.128 189.05 25.128C189.924 25.128 190.735 24.9573 191.482 24.616C192.25 24.2747 193.018 23.9227 193.786 23.56H194.426C195.386 23.56 195.866 24.04 195.866 25C195.866 25.576 195.642 26.0667 195.194 26.472C194.767 26.8773 194.212 27.2187 193.53 27.496C192.847 27.752 192.122 27.9547 191.354 28.104C190.586 28.2533 189.871 28.36 189.21 28.424C188.548 28.488 188.026 28.52 187.642 28.52ZM201.117 28.84C200.519 28.84 200.071 28.6373 199.773 28.232C199.495 27.8053 199.357 27.3147 199.357 26.76C199.357 25.48 199.431 24.1787 199.581 22.856C199.751 21.5333 199.837 20.2533 199.837 19.016C199.837 16.8827 199.751 14.8027 199.581 12.776C199.431 10.7493 199.357 8.66933 199.357 6.536V5.704C199.506 5.36267 199.709 5.128 199.965 5C200.242 4.85067 200.53 4.776 200.829 4.776C201.319 4.776 201.714 4.94667 202.013 5.288C202.333 5.62933 202.578 6.04533 202.749 6.536C202.919 7.02667 203.037 7.51733 203.101 8.008C203.186 8.49867 203.229 8.904 203.229 9.224V19.848L203.421 20.04L203.453 20.008C204.029 19.432 204.573 18.7813 205.085 18.056C205.618 17.3307 206.162 16.6373 206.717 15.976C207.293 15.2933 207.922 14.728 208.605 14.28C209.309 13.832 210.119 13.608 211.037 13.608C211.847 13.608 212.541 13.8213 213.117 14.248C213.714 14.6747 214.183 15.2293 214.525 15.912C214.866 16.5947 215.09 17.3093 215.197 18.056L216.157 24.84V25.8C216.157 26.1413 216.135 26.504 216.093 26.888C216.05 27.2507 215.922 27.56 215.709 27.816C215.517 28.072 215.175 28.2 214.685 28.2C214.13 28.2 213.693 27.9867 213.373 27.56C213.074 27.112 212.861 26.568 212.733 25.928C212.605 25.288 212.519 24.6587 212.477 24.04C212.434 23.4213 212.391 22.9307 212.349 22.568C212.327 22.4187 212.295 22.1413 212.253 21.736C212.231 21.3307 212.189 20.8613 212.125 20.328C212.061 19.7947 211.975 19.2827 211.869 18.792C211.762 18.28 211.623 17.864 211.453 17.544C211.303 17.2027 211.111 17.032 210.877 17.032C210.514 17.032 210.151 17.1813 209.789 17.48C209.426 17.7787 209.127 18.088 208.893 18.408C207.783 19.8587 206.717 21.3947 205.693 23.016C204.69 24.616 203.687 26.184 202.685 27.72C202.514 27.9973 202.301 28.2533 202.045 28.488C201.789 28.7227 201.479 28.84 201.117 28.84Z" fill="#7FFF00"/>
</g>
<defs>
<clipPath id="clip0_1120_15975">
<rect width="217" height="36" fill="white"/>
</clipPath>
</defs>
</svg>
